<?xml version="1.0" encoding="UTF-8"?>
<svg id="Layer_2" data-name="Layer 2" xmlns="http://www.w3.org/2000/svg" viewBox="0 0 750 830">
  <defs>
    <style>
      .cls-1 {
        fill: none;
      }

      .cls-2 {
        fill: #5885c4;
      }

      .cls-3 {
        fill: #abc2e1;
      }

      .cls-4 {
        fill: #f8a712;
      }
    </style>
  </defs>
  <g id="shrug_EC" data-name="shrug EC">
    <g>
      <g>
        <g>
          <path class="cls-3" d="M522.03,472.84c-5.36,4.92-12.85,8.65-19.21,11.19-39.18,15.7-109.83,18.62-163.6-6.88-1.41-.67-2.73-1.16-3.98-1.52-1.48,10.84-3.73,20.49-5.73,27.73l-.27.97c-5.03,18.23-13.46,48.79-28.3,65.41-6.74,30.32-17.45,59.79-40.29,73.88,17.17,16.36,40.14,28.82,66.84,36.21,28.93,8.01,60.14,9.49,90.24,4.3,49.34-8.51,83.66-28.2,102.01-58.52,21.4-35.36,22.16-86.72,2.28-152.77Z"/>
          <path class="cls-3" d="M451.05,154.52c.6-1.67,1.2-3.33,1.79-4.97,5.12-14.22,10.41-28.92,17.06-42.61,13.72-28.14,32.06-54.38,52.71-75.64-23.23,9.58-43.57,25.12-62.89,47.85-1.38,1.62-3.67,2.1-5.58,1.17-1.91-.93-2.95-3.03-2.52-5.12,3.81-18.69,10.99-34.96,21.78-49.31-29.45,12.81-46.55,30.36-63.18,53.46-1.16,1.61-3.22,2.31-5.12,1.74-1.9-.57-3.23-2.29-3.31-4.28-.41-10.85,4.36-25.36,13.06-40.39-35.15,15.34-56.3,40.08-67.16,78.32,6.53-1.33,13.16-1.97,19.77-1.97,32.53,0,64.68,15.59,83.58,41.74Z"/>
        </g>
        <g>
          <path class="cls-2" d="M671.6,435.8c-43.38-6.81-81.63-10.11-110.35,18.64-1.29,1.29-3.21,1.71-4.92,1.07-1.71-.64-2.89-2.22-3.01-4.04-.83-11.95-4.28-23.19-9.85-32.7-1.01,1.32-2.06,2.61-3.18,3.87-4.55,5.11-9.85,9.52-15.68,13.18-.23,8.98.77,17.49,3.54,25.41.01.03.02.07.03.1,0,0,0,0,0,0,0,0,0,.02,0,.02.4,1.14.77,2.33,1.12,3.55,12.43,39.65,17.78,74.49,16.03,104.25,1.17-.45,2.35-.92,3.52-1.43,26.95-11.61,40.69-36.9,53.98-61.35,15.34-28.23,31.2-57.43,67.1-66.19,3.88-.95,5.79-2.28,6.2-2.86-.17-.2-1.09-.99-4.54-1.53Z"/>
          <path class="cls-2" d="M352.88,694.51c-.26-.04-.53-.07-.79-.11-9.17-1.28-18.23-3.14-27.08-5.59-15.27-4.23-29.41-10.05-42.07-17.27-1.41,10.04,1.04,19.82,6.85,26.73,7.22,8.59,18.74,14.22,35.23,17.22,11.31,2.05,19.89.23,25.5-5.43,3.57-3.6,5.85-8.82,6.71-14.99-.99-.12-1.97-.25-2.95-.38-.47-.06-.94-.12-1.4-.18Z"/>
          <path class="cls-2" d="M477.57,675.11c-16.5,8.26-35.93,14.35-58.25,18.2-6.23,1.07-12.5,1.87-18.79,2.4.9,5.7,2.71,10.38,6.19,13.56,5.99,5.47,17.28,7.06,34.51,4.88,17.65-2.24,29.13-8.39,34.12-18.29,2.81-5.58,3.57-12.5,2.25-20.57,0-.06-.02-.12-.03-.18Z"/>
          <path class="cls-2" d="M542.2,329.75c2.02-7.13,3.85-14.27,5.35-21.41-11.67-1.44-24.58-2.35-38.4-2.72,5.72,2.64,11.24,5.77,16.38,9.35,6.45,4.49,12.03,9.46,16.67,14.78Z"/>
          <path class="cls-2" d="M332.84,215.21c.31-.38.63-.75.94-1.12.1-.12.2-.24.3-.35.78-.92,1.57-1.81,2.37-2.69,0,0,.02-.02.03-.03,9.75-10.68,20.92-18.26,32.42-22.17.11-.04.21-.07.32-.11.55-.18,1.09-.36,1.64-.52.29-.09.58-.18.87-.26.21-.06.42-.11.63-.17,5.38-1.49,10.72-2.15,15.95-1.97,3.95.02,7.85.56,11.68,1.61.02,0,.05.01.07.02,1.9.52,3.77,1.17,5.63,1.95.02,0,.04.02.06.03,1.86.78,3.69,1.68,5.5,2.71.02,0,.03.02.05.03,1.81,1.03,3.59,2.18,5.34,3.45.02.02.05.04.07.05.84.61,1.68,1.25,2.5,1.92.04.03.08.06.12.1.84.68,1.68,1.39,2.51,2.14.05.04.09.08.14.13.74.67,1.48,1.37,2.21,2.08.13.12.25.25.38.37.77.77,1.54,1.55,2.29,2.37.06.06.12.13.18.2.39.42.77.85,1.16,1.28,9.39-.5,19.18-.86,29.23-1.02,1.36-.94,2.75-1.81,4.15-2.62.19-.11.37-.22.56-.33.21-.12.41-.23.62-.35.37-.21.75-.41,1.12-.61.06-.03.11-.06.17-.09,10.35-5.43,21.25-7.4,30.96-5.45.05,0,.1.02.14.03.44.09.88.19,1.31.29.15.04.29.08.44.11.34.09.68.18,1.01.27.18.05.36.11.54.16.31.09.61.19.92.29.06.02.12.04.18.06.22.08.44.16.66.24.1.04.2.07.3.11.36.14.73.28,1.09.44.06.02.12.05.18.08.28.12.56.24.84.37.12.06.25.12.38.18.21.1.43.2.64.31.18.09.35.18.53.27.16.08.33.17.49.26.22.12.44.25.67.37.12.07.24.13.36.2.26.15.52.31.78.47.08.05.16.1.25.15.29.18.58.38.88.57.05.03.1.07.15.1.32.22.64.45.96.68.02.01.04.03.06.04,1.83,1.34,3.64,2.95,5.4,4.87,6.93.52,13.84,1.19,20.68,2.01-14.66-28.63-37.86-57.27-66.96-73.1-2.16,5.69-4.23,11.42-6.26,17.07-1.64,4.54-3.33,9.24-5.03,13.8-.63,1.69-2.18,2.87-3.98,3.01-.13.01-.25.02-.38.02-1.66,0-3.2-.89-4.04-2.34l-.25-.43c-20.38-35.04-65.61-52.73-105.27-41.2-49.6,18.08-87.11,60.55-102.25,108.65,32.84-7.72,62.42-13.55,91.64-18.01.27-.34.53-.68.81-1.02Z"/>
          <path class="cls-2" d="M287.35,579.68c-7.42,2.83-15.46,4.24-23.85,4.24-11.31,0-23.22-2.56-35.01-7.64h0c-.87-.38-1.73-.77-2.58-1.17,1.05,14.7,5.41,28.76,13.14,41.92,4.11,6.99,9.13,13.58,14.89,19.74,18.47-10.29,28.59-32.88,35.19-57.86-.59.27-1.18.54-1.78.77Z"/>
          <path class="cls-2" d="M484.37,447.86s-.09,0-.14,0c-1.86,0-3.55-1.12-4.29-2.84-.75-1.77-.33-3.81,1.04-5.15,6.05-5.89,9.41-13.79,9.48-22.26.06-7.48-2.58-14.46-7.24-19.13-.39-.39-.78-.76-1.18-1.11-12.96,20.02-35.87,33.94-57.7,38.52-6.47,1.36-12.79,2.03-18.84,2.03-13.17,0-25.09-3.18-34.63-9.39-15.25-9.92-25.17-28.44-25.89-48.32-.53-14.61,2.25-26.92,8.23-36.81-.08-.03-.16-.06-.24-.08-.55-.18-1.09-.36-1.62-.55-.12-.04-.23-.08-.34-.13-.53-.19-1.05-.38-1.56-.58-.12-.05-.23-.09-.35-.14-.5-.2-1-.4-1.49-.6-.12-.05-.24-.11-.37-.16-.48-.2-.95-.41-1.42-.62-.12-.06-.24-.11-.37-.17-.46-.21-.91-.42-1.36-.64-.13-.06-.25-.13-.37-.19-.44-.22-.87-.43-1.29-.66-.12-.06-.24-.13-.36-.19-.42-.22-.84-.45-1.25-.68-.12-.07-.24-.14-.36-.21-.4-.23-.8-.46-1.19-.69-.13-.08-.25-.15-.37-.23-.38-.23-.75-.47-1.12-.7-.13-.08-.25-.16-.37-.25-.36-.24-.72-.47-1.07-.72-.12-.09-.24-.17-.37-.26-.34-.24-.69-.48-1.02-.73-.12-.09-.24-.18-.36-.27-.33-.24-.65-.49-.97-.74-.12-.1-.24-.19-.36-.29-.31-.25-.62-.49-.92-.74-.12-.1-.24-.2-.36-.31-.29-.25-.59-.5-.87-.75-.12-.11-.24-.21-.36-.32-.28-.25-.55-.5-.82-.75-.12-.11-.23-.23-.35-.34-.26-.25-.52-.5-.78-.76-.12-.12-.23-.23-.34-.35-.25-.25-.5-.51-.74-.76-.11-.12-.22-.24-.33-.36-.24-.26-.47-.51-.71-.77-.11-.12-.22-.25-.33-.37-.22-.26-.45-.51-.67-.77-.08-.1-.16-.19-.24-.29-31.61,7.75-55.28,16.87-66.11,25.91-2.36,1.97-5.14,4.84-5.64,7.69,3.5,8.52,6.81,17.18,9.25,26.07,10.66-4.04,22.08-4.89,32.81-2.16,16.17,4.11,28.53,15.43,34.8,31.87,6.29,16.5,7.13,34.95,5.72,51.59,2.22.5,4.53,1.31,6.92,2.45,30.76,14.58,63.3,17.85,85.17,18.02,26.54.21,52.41-3.94,70.98-11.38,9.93-3.98,16.85-8.63,19.4-12.97-2.2-6.93-3.28-14.14-3.47-21.59-9.51,4.27-20.03,6.71-30.91,7.03Z"/>
          <path class="cls-2" d="M284.03,570.99c19.2-7.33,30.71-49.07,36.24-69.13l.27-.97c5.16-18.72,12.2-54.37,1.33-82.87-5.16-13.53-15.24-22.82-28.39-26.17-14.42-3.66-30.49.54-42.98,11.25-12.69,10.88-20.85,27.73-22.6,46.45,12.27,13.74,19.19,28.8,20.54,44.81.22,2.56-1.69,4.81-4.25,5.03-.13.01-.27.02-.4.02-2.39,0-4.43-1.83-4.63-4.26-1.22-14.47-7.76-28.18-19.43-40.76-28.71-28.69-66.93-25.39-110.29-18.58-3.45.54-4.36,1.33-4.54,1.53.4.57,2.31,1.91,6.21,2.86,35.9,8.76,51.76,37.95,67.1,66.19,13.29,24.46,27.03,49.75,53.98,61.35,18.3,7.88,36.72,9.03,51.86,3.25Z"/>
          <path class="cls-2" d="M468.73,296.07c8.97,0,18.57,1.66,28.01,4.7,6.34-2.77,11.36-6.68,15.09-11.82-4.89.73-9.93,1.09-14.99,1.09-17.47,0-35.1-4.15-46.88-11.31-.06,7.09-.69,13.63-1.92,19.62,6.57-1.48,13.45-2.26,20.5-2.28h.2Z"/>
          <path class="cls-2" d="M517.12,278.47c3.07-9.2,3.71-20.85,2.02-35.2-2.7-19.93-10.29-32.8-21.95-37.22-3.06-1.16-6.37-1.73-9.82-1.73-9.63,0-20.37,4.4-29.84,12.57-6.52,5.61-10.94,11.6-13.75,17.42,1.68,5.33,3.02,11.14,4.03,17.47.8,3.09,1.22,6.27,1.25,9.45.2,1.92.37,3.81.5,5.66,12.45,11.9,43.8,17.3,67.57,11.58Z"/>
          <path class="cls-2" d="M439.7,260.15c-.1-2.09-.41-4.18-.95-6.22-.04-.15-.07-.31-.1-.47-2.52-15.96-7.19-28.16-14.29-37.28-10.86-13.96-23.02-21.04-36.14-21.06-.05,0-.1,0-.15,0-.46-.02-.92-.02-1.39-.02-16.13,0-33.04,9.41-46.63,26-16.2,19.78-23.5,44.71-19.34,65.56,34.18,19.69,93.55,12.42,118.99-26.51Z"/>
          <path class="cls-2" d="M387.26,338.57c2.83-.04,5.63-.3,8.37-.73,2.51-5.23,5.73-10.16,9.64-14.69,8.49-9.81,19.67-17.23,32.44-21.81,2.22-7.81,3.18-16.84,2.89-27.19-12.43,13.78-30.76,24.48-51.2,29.54-8.72,2.16-17.52,3.22-26.15,3.22-14.46,0-28.44-2.99-40.8-8.81,5.65,26.74,28.31,41.02,64.81,40.46Z"/>
        </g>
        <g>
          <path class="cls-4" d="M437.11,395.41c-14.1,3.52-27.42,6.85-36.95.45-5.52-3.71-8.87-10.06-10.22-19.42,0,0,0,0,0,0,0,0,0-.06,0-.06-1.41-9.92-.72-19.64,1.94-28.72-1.48.12-2.97.21-4.47.23-.77.01-1.54.02-2.3.02-8.37,0-15.78-.73-22.36-2.04-6.12,8.71-8.96,20.1-8.46,34.01.61,16.9,8.91,32.56,21.66,40.86,15.98,10.4,35.98,8.26,46.48,6.05,24.13-5.07,41.56-18.7,51.43-34.17-10.7-3.7-23.89-.41-36.76,2.8Z"/>
          <path class="cls-4" d="M548.77,365.71c-1.4-15.95-11.54-31.25-28.56-43.09-15.51-10.8-34.74-17.23-51.48-17.23h-.18c-22.67.06-43.17,8.76-56.24,23.87-11.05,12.77-15.6,28.59-13.16,45.77v.09c.97,6.6,2.99,10.86,6.21,13.02,6.1,4.09,17.47,1.25,29.51-1.75,8.81-2.2,18.7-4.67,28.31-4.67s18.97,2.48,26.66,10.2c6.4,6.42,10.03,15.81,9.95,25.77-.05,7.08-1.89,13.87-5.3,19.84,15.26-2.63,29.05-10.03,38.86-21.06,11.84-13.31,17.18-30.86,15.43-50.75Z"/>
        </g>
        <path d="M685.27,435.42c-1-4.73-5.12-7.7-12.23-8.82-21.12-3.32-41.71-6.14-61.58-4.29-19.81,1.84-36.25,8.2-49.98,19.37-2.01-11.54-6.27-22.29-12.37-31.43,7.34-13.1,10.4-28.53,8.92-45.37-.79-8.93-3.83-17.64-8.88-25.76,2.92-9.79,5.58-19.63,7.65-29.49.35.06.72.11,1.07.16,2.35.38,4.61-1.07,5.24-3.37,9.62-35.21-1.23-77.62-8-92.64-.64-1.42-1.95-2.43-3.49-2.68-1.87-.31-3.75-.6-5.64-.88-6.57-13.94-14.84-27.46-24.26-39.52-14.91-19.09-32.24-34.11-50.46-43.81,2.19-5.41,4.5-10.75,7-15.89,16.5-33.83,39.86-64.8,65.79-87.2,1.64-1.41,2.08-3.77,1.08-5.68-1-1.92-3.19-2.89-5.29-2.35-27.94,7.21-51.79,20.99-73.88,42.89,5.72-15.28,14.46-28.59,26.46-40.35,1.54-1.51,1.84-3.89.72-5.73-1.12-1.85-3.36-2.68-5.42-2.02-31.41,10.19-52.69,23.87-73.13,47.99,3.27-8.99,8.67-19.07,15.68-28.92,1.17-1.65,1.15-3.86-.06-5.48-1.21-1.62-3.32-2.27-5.23-1.62-48.15,16.45-75.28,45.85-87.7,95.12-52.98,20.17-92.54,66.84-107.25,119.05-1.13.27-2.26.55-3.4.82-1.26.31-2.34,1.13-2.97,2.27-3.6,6.5-6.07,15.76-7.27,26.43-24.35-14.84-56.78-21.43-73.73-19.16-1.42.19-2.67,1.02-3.39,2.25-.73,1.23-.84,2.73-.32,4.06,7.39,18.88,24.8,30.8,39.15,39.08,6.56,3.79,13.47,7.68,20.55,11.26-15.87,7.17-28.93,21.16-34.08,37.65-.4,1.29-.23,2.69.48,3.84s1.88,1.93,3.22,2.15c5.35.86,11.77,1.67,18.6,1.67,9.25,0,19.25-1.48,28.32-6.3,3.42-1.82,6.87-4.62,9.95-8,4.33,10.57,10.69,20.82,19.99,27.88,3.57,8.69,6.91,17.51,9.23,26.47-3.47,1.98-6.81,4.29-9.94,6.98-12.89,11.05-21.7,27.35-24.9,45.65-13.73-11.17-30.17-17.53-49.98-19.37-19.86-1.84-40.46.98-61.58,4.29-7.11,1.12-11.23,4.08-12.23,8.81-1.98,9.36,9.55,12.94,13.13,13.82,31.89,7.78,46.09,33.92,61.12,61.59,11.99,22.06,24.33,44.76,46.29,58.95.35,21.43,7.04,38.89,14.73,51.98,4.95,8.43,11.1,16.32,18.25,23.59.1.12.19.24.3.36,7.23,7.63,15.58,14.52,24.86,20.62-3.1,13.95-.06,28.08,8.23,37.94,4.54,5.41,10.38,9.8,17.58,13.26-2.31,12.36-16.87,25.28-26.68,33.97-.4.36-.79.7-1.18,1.04-6.87-.6-13.71-.83-20.48-.63-29.24.84-56.75,9.11-79.57,23.92-1.95,1.27-2.67,3.78-1.68,5.89.99,2.11,3.39,3.15,5.61,2.45,23.06-7.28,29.66-9.14,52.97-9.89-10.81,7.36-20.15,16.73-28.18,32.96-.93,1.89-.48,4.17,1.1,5.56.87.77,1.97,1.16,3.07,1.16.9,0,1.79-.26,2.58-.78,1.79-1.19,3.53-2.35,5.22-3.49,38.85-26,54.93-36.76,126.89-28.63,2.25.25,4.36-1.15,4.99-3.33.63-2.18-.4-4.5-2.44-5.48-11.7-5.66-23.72-10.16-35.85-13.49,8.88-9.21,17.32-20.41,20.52-33.53,2.18.26,4.25.39,6.19.39,12.03,0,19.46-4.61,23.8-8.98,5.14-5.18,8.32-12.33,9.4-20.64,5.17.39,10.39.61,15.63.61.83,0,1.66,0,2.49-.01.95-.01,1.86-.07,2.74-.15,1.27-.03,2.53-.07,3.8-.12,1.11,7.97,3.69,14.76,9.27,19.85,6.08,5.55,14.93,8.26,27.34,8.26,1.25,0,2.55-.04,3.88-.09.22,2.83.55,5.66,1,8.47.81,5.08,2.37,12.17,5.28,19.05-18.91,5.26-36.88,13.38-53.4,24.21-2.04,1.34-2.7,4.02-1.52,6.15,1.18,2.13,3.81,2.99,6.02,1.96,49.85-23.1,121.03-8.12,162.05,34.09.9.93,2.12,1.41,3.34,1.41.86,0,1.72-.24,2.49-.72,1.86-1.18,2.64-3.5,1.86-5.57-7.32-19.47-23.48-36.1-45.73-47.62,25.32,1.16,47.64,4.57,92.07,20.57,2.26.82,4.78-.23,5.79-2.41,1.02-2.18.21-4.78-1.87-5.99-35.25-20.57-73.94-32.04-111.91-33.18-10.32-.3-20.52.17-30.55,1.4-3.02-3.04-6.61-13.97-7.25-26.56,11.64-4.03,19.81-10.56,24.33-19.53,4.14-8.22,4.96-18.11,2.49-29.58,17.86-10.46,31.76-23.82,41.57-40.03,8.85-14.61,14.42-31.67,16.73-51.07,2.7-.9,5.41-1.92,8.1-3.08h0c29.91-12.88,44.43-39.61,58.47-65.46,15.03-27.67,29.23-53.81,61.12-61.59,3.58-.87,15.11-4.45,13.13-13.82ZM489.83,391.91c-7.69-7.72-17.03-10.2-26.66-10.2s-19.5,2.47-28.31,4.67c-12.04,3-23.41,5.85-29.51,1.75-3.22-2.16-5.24-6.42-6.19-13.02v-.09c-2.45-17.18,2.1-33,13.15-45.77,13.07-15.1,33.57-23.8,56.24-23.87h.18c16.73,0,35.96,6.44,51.48,17.23,17.01,11.84,27.15,27.15,28.56,43.09,1.75,19.89-3.59,37.44-15.43,50.75-9.81,11.03-23.6,18.42-38.86,21.06,3.4-5.97,5.24-12.75,5.3-19.84.08-9.96-3.55-19.35-9.95-25.77ZM386.67,195.1c.46,0,.93,0,1.39.02.05,0,.1,0,.15,0,13.12.01,25.29,7.1,36.14,21.06,7.1,9.13,11.77,21.32,14.29,37.28.02.16.06.31.1.47.54,2.04.85,4.12.95,6.22-25.44,38.94-84.81,46.2-118.99,26.51-4.16-20.86,3.14-45.78,19.34-65.56,13.59-16.59,30.5-26,46.63-26ZM449.95,278.73c11.78,7.16,29.42,11.31,46.88,11.31,5.06,0,10.11-.36,14.99-1.09-3.73,5.14-8.75,9.05-15.09,11.82-9.44-3.04-19.03-4.7-28.01-4.7h-.2c-7.06.02-13.93.8-20.5,2.28,1.23-6,1.87-12.53,1.92-19.62ZM517.12,278.47c-23.77,5.73-55.12.32-67.57-11.58-.14-1.86-.3-3.74-.5-5.66-.03-3.18-.45-6.36-1.25-9.45-1.01-6.33-2.35-12.14-4.03-17.47,2.81-5.83,7.23-11.81,13.75-17.42,9.47-8.16,20.21-12.57,29.84-12.57,3.45,0,6.76.57,9.82,1.73,11.67,4.43,19.25,17.3,21.95,37.22,1.69,14.35,1.05,26-2.02,35.2ZM322.45,298.12c12.36,5.82,26.34,8.81,40.8,8.81,8.63,0,17.43-1.06,26.15-3.22,20.44-5.06,38.77-15.77,51.2-29.54.29,10.35-.67,19.39-2.89,27.19-12.77,4.57-23.95,12-32.44,21.81-3.92,4.52-7.14,9.46-9.64,14.69-2.74.43-5.53.69-8.37.73-36.5.57-59.16-13.71-64.81-40.46ZM362.75,345.86c6.58,1.3,13.99,2.04,22.36,2.04.75,0,1.53,0,2.3-.02,1.5-.02,2.99-.11,4.47-.23-2.65,9.08-3.34,18.8-1.94,28.72,0,0,0,.06,0,.06,0,0,0,0,0,0,1.35,9.36,4.69,15.71,10.22,19.42,9.53,6.4,22.85,3.07,36.95-.45,12.86-3.21,26.06-6.5,36.76-2.8-9.88,15.47-27.3,29.11-51.43,34.17-10.5,2.2-30.5,4.35-46.48-6.05-12.75-8.3-21.05-23.95-21.66-40.86-.5-13.92,2.34-25.31,8.46-34.01ZM542.2,329.75c-4.64-5.32-10.22-10.29-16.67-14.78-5.14-3.58-10.66-6.71-16.38-9.35,13.82.37,26.73,1.28,38.4,2.72-1.51,7.14-3.34,14.28-5.35,21.41ZM414.85,36.43c-8.7,15.03-13.47,29.54-13.06,40.39.08,1.99,1.4,3.71,3.31,4.28,1.9.57,3.96-.12,5.12-1.74,16.63-23.1,33.74-40.66,63.18-53.46-10.8,14.35-17.97,30.62-21.78,49.31-.42,2.08.61,4.19,2.52,5.12,1.91.93,4.21.45,5.58-1.17,19.32-22.74,39.66-38.28,62.89-47.85-20.65,21.27-38.99,47.51-52.71,75.64-6.64,13.69-11.94,28.39-17.06,42.61-.59,1.64-1.19,3.3-1.79,4.97-18.9-26.15-51.05-41.74-83.58-41.74-6.61,0-13.24.64-19.77,1.97,10.86-38.24,32-62.98,67.16-78.32ZM342.65,125.58c39.66-11.54,84.9,6.16,105.27,41.2l.25.43c.83,1.46,2.38,2.34,4.04,2.34.13,0,.25,0,.38-.02,1.8-.15,3.35-1.32,3.98-3.01,1.7-4.57,3.39-9.26,5.03-13.8,2.03-5.65,4.1-11.38,6.26-17.07,29.1,15.83,52.3,44.47,66.96,73.1-6.84-.82-13.75-1.49-20.68-2.01-.18-.2-.37-.39-.56-.58-.18-.19-.37-.39-.55-.57-.21-.21-.42-.42-.63-.62-.2-.19-.4-.39-.61-.57-.2-.18-.4-.37-.6-.54-.23-.2-.47-.4-.7-.6-.17-.15-.35-.29-.52-.43-.41-.33-.81-.65-1.22-.95-.02-.02-.04-.03-.06-.04-.32-.24-.64-.46-.96-.68-.05-.03-.1-.07-.15-.1-.29-.2-.58-.39-.88-.57-.08-.05-.16-.1-.25-.15-.26-.16-.52-.32-.78-.47-.12-.07-.24-.14-.36-.2-.22-.13-.45-.25-.67-.37-.16-.09-.33-.17-.49-.26-.18-.09-.36-.19-.53-.27-.22-.11-.43-.21-.64-.31-.13-.06-.25-.12-.38-.18-.28-.13-.56-.25-.84-.37-.06-.02-.12-.05-.18-.08-.37-.15-.73-.3-1.09-.44-.1-.04-.2-.07-.3-.11-.22-.08-.44-.16-.66-.24-.06-.02-.12-.04-.18-.06-.3-.1-.61-.2-.92-.29-.18-.06-.36-.11-.54-.16-.34-.1-.67-.19-1.01-.27-.15-.04-.29-.08-.44-.11-.43-.11-.87-.2-1.31-.29-.05,0-.1-.02-.14-.03-9.7-1.95-20.6.02-30.96,5.45-.06.03-.11.06-.17.09-.37.2-.75.4-1.12.61-.21.12-.42.23-.62.35-.19.11-.37.22-.56.33-.86.5-1.72,1.03-2.57,1.58-.02.01-.04.03-.06.04-.51.33-1.01.65-1.51,1-10.05.16-19.84.52-29.23,1.02-.38-.44-.77-.86-1.16-1.28-.06-.07-.12-.13-.18-.2-.76-.82-1.52-1.6-2.29-2.37-.13-.12-.25-.25-.38-.37-.73-.72-1.47-1.41-2.21-2.08-.05-.04-.09-.08-.14-.13-.83-.74-1.66-1.45-2.51-2.14-.04-.03-.08-.06-.12-.1-.83-.67-1.66-1.31-2.5-1.92-.02-.02-.05-.04-.07-.05-1.75-1.27-3.53-2.42-5.34-3.45-.02,0-.03-.02-.05-.03-1.81-1.03-3.64-1.93-5.5-2.71-.02,0-.04-.02-.06-.03-1.85-.77-3.73-1.42-5.63-1.95-.02,0-.05-.01-.07-.02-.92-.25-1.85-.48-2.78-.67-2.93-.61-5.9-.93-8.9-.94-5.23-.18-10.57.48-15.95,1.97-.21.06-.42.11-.63.17-.29.08-.58.17-.87.26-.55.17-1.1.34-1.64.52-.11.04-.21.07-.32.11-11.5,3.91-22.66,11.49-32.42,22.17,0,0-.02.02-.03.03-.8.88-1.59,1.77-2.37,2.69-.1.12-.2.24-.3.35-.31.37-.63.74-.94,1.12-.27.34-.54.68-.81,1.02-29.22,4.46-58.8,10.29-91.64,18.01,15.15-48.1,52.66-90.57,102.25-108.65ZM253.72,358.93c.5-2.86,3.28-5.72,5.64-7.69,10.83-9.05,34.5-18.16,66.11-25.91.08.1.16.19.24.29.22.26.44.51.67.77.11.12.22.25.33.37.23.26.47.51.71.77.11.12.22.24.33.36.24.26.49.51.74.76.11.12.23.23.34.35.26.25.52.5.78.76.12.11.23.23.35.34.27.25.55.5.82.75.12.11.24.21.36.32.29.25.58.5.87.75.12.1.24.2.36.31.3.25.61.5.92.74.12.1.24.19.36.29.32.25.64.49.97.74.12.09.24.18.36.27.33.25.68.49,1.02.73.12.09.24.17.37.26.35.24.71.48,1.07.72.12.08.25.16.37.25.37.24.74.47,1.12.7.12.08.25.15.37.23.39.24.79.47,1.19.69.12.07.24.14.36.21.41.23.83.46,1.25.68.12.06.24.13.36.19.42.22.86.44,1.29.66.12.06.25.13.37.19.44.22.9.43,1.36.64.12.06.24.11.37.17.46.21.94.41,1.42.62.12.05.24.11.37.16.49.2.99.4,1.49.6.12.05.23.09.35.14.51.2,1.04.39,1.56.58.11.04.23.08.34.13.53.19,1.07.37,1.62.55.08.03.16.06.24.08-5.99,9.89-8.76,22.19-8.23,36.81.72,19.88,10.64,38.4,25.89,48.32,9.54,6.21,21.46,9.39,34.63,9.39,6.05,0,12.37-.67,18.84-2.03,21.83-4.58,44.75-18.5,57.7-38.52.4.35.79.72,1.18,1.11,4.66,4.67,7.29,11.64,7.24,19.13-.06,8.47-3.43,16.38-9.48,22.26-1.38,1.34-1.79,3.38-1.04,5.15.73,1.72,2.42,2.84,4.29,2.84.05,0,.09,0,.14,0,10.88-.32,21.4-2.76,30.91-7.03.2,7.45,1.28,14.66,3.47,21.59-2.55,4.34-9.47,8.99-19.4,12.97-18.57,7.44-44.43,11.58-70.98,11.38-21.88-.17-54.41-3.44-85.17-18.02-2.39-1.13-4.7-1.95-6.92-2.45,1.42-16.64.58-35.09-5.72-51.59-6.27-16.44-18.63-27.76-34.8-31.87-10.73-2.73-22.15-1.87-32.81,2.16-2.43-8.89-5.74-17.56-9.25-26.07ZM178.2,506.38c-15.34-28.23-31.2-57.43-67.1-66.19-3.89-.95-5.81-2.29-6.21-2.86.18-.2,1.1-.99,4.54-1.53,43.35-6.81,81.58-10.11,110.29,18.58,11.67,12.57,18.21,26.29,19.43,40.76.2,2.43,2.24,4.26,4.63,4.26.13,0,.26,0,.4-.02,2.56-.22,4.46-2.47,4.25-5.03-1.35-16.01-8.27-31.07-20.54-44.81,1.75-18.72,9.91-35.57,22.6-46.45,12.49-10.71,28.56-14.91,42.98-11.25,13.15,3.34,23.23,12.63,28.39,26.17,10.87,28.5,3.83,64.15-1.33,82.87l-.27.97c-5.53,20.06-17.04,61.8-36.24,69.13-15.15,5.78-33.56,4.63-51.86-3.25-26.95-11.61-40.69-36.9-53.98-61.35ZM239.06,617.03c-7.73-13.16-12.1-27.22-13.14-41.92.85.4,1.71.79,2.58,1.17h0c11.79,5.08,23.71,7.64,35.01,7.64,8.38,0,16.43-1.41,23.85-4.24.6-.23,1.19-.5,1.78-.77-6.6,24.97-16.72,47.56-35.19,57.86-5.76-6.15-10.78-12.74-14.89-19.74ZM350.52,710.06c-5.61,5.66-14.2,7.48-25.5,5.43-16.49-3-28.01-8.63-35.23-17.22-5.81-6.92-8.26-16.7-6.85-26.73,12.66,7.22,26.8,13.05,42.07,17.27,8.85,2.45,17.91,4.31,27.08,5.59.26.04.53.08.79.11.47.06.94.12,1.4.18.98.13,1.96.26,2.95.38-.86,6.16-3.14,11.39-6.71,14.99ZM477.6,675.29c1.32,8.07.56,14.99-2.25,20.57-4.99,9.9-16.47,16.05-34.12,18.29-17.23,2.19-28.52.59-34.51-4.88-3.48-3.18-5.3-7.86-6.19-13.56,6.29-.53,12.56-1.33,18.79-2.4,22.31-3.85,41.75-9.94,58.25-18.2.01.06.02.12.03.18ZM519.75,625.62c-18.35,30.32-52.67,50-102.01,58.52-30.1,5.19-61.31,3.71-90.24-4.3-26.7-7.39-49.67-19.85-66.84-36.21,22.83-14.09,33.54-43.56,40.29-73.88,14.85-16.62,23.28-47.18,28.3-65.41l.27-.97c2-7.24,4.25-16.89,5.73-27.73,1.25.36,2.57.85,3.98,1.52,53.77,25.5,124.42,22.57,163.6,6.88,6.36-2.55,13.85-6.27,19.21-11.19,19.88,66.05,19.12,117.42-2.28,152.77ZM669.94,440.2c-35.9,8.76-51.76,37.95-67.1,66.19-13.29,24.46-27.02,49.75-53.98,61.35-1.17.5-2.35.98-3.52,1.43,1.75-29.76-3.6-64.6-16.03-104.25-.35-1.22-.72-2.41-1.12-3.55,0,0,0-.02,0-.02,0,0,0,0,0,0-.01-.03-.02-.07-.03-.1-2.76-7.92-3.77-16.43-3.54-25.41,5.83-3.66,11.13-8.07,15.68-13.18,1.12-1.25,2.16-2.55,3.18-3.87,5.56,9.51,9.02,20.75,9.85,32.7.13,1.82,1.3,3.4,3.01,4.04,1.71.64,3.63.22,4.92-1.07,28.71-28.75,66.96-25.45,110.35-18.64,3.45.54,4.36,1.33,4.54,1.53-.41.58-2.32,1.91-6.2,2.86Z"/>
      </g>
      <rect class="cls-1" width="750" height="830"/>
    </g>
  </g>
</svg>