<?xml version="1.0" encoding="UTF-8"?>
<svg id="Layer_2" data-name="Layer 2" xmlns="http://www.w3.org/2000/svg" viewBox="0 0 750 830">
  <defs>
    <style>
      .cls-1 {
        fill: none;
      }

      .cls-2 {
        fill: #5885c4;
      }

      .cls-3 {
        fill: #abc2e1;
      }

      .cls-4 {
        fill: #fff;
      }

      .cls-5 {
        fill: #f8a712;
      }
    </style>
  </defs>
  <g id="natural_look" data-name="natural look">
    <g>
      <g>
        <g>
          <path class="cls-3" d="M522.03,472.84c-5.36,4.92-12.85,8.65-19.21,11.19-39.18,15.7-109.83,18.62-163.6-6.88-2.8-1.33-5.27-2.02-7.47-2.11,6.11,29.23,1.53,67.05-13.79,101.64-13.5,30.47-33.18,53.56-56.72,67.47,17.1,16.09,39.85,28.37,66.26,35.68,28.93,8.01,60.14,9.49,90.24,4.3,49.34-8.51,83.66-28.2,102.01-58.52,21.4-35.36,22.16-86.72,2.28-152.77Z"/>
          <path class="cls-3" d="M451.05,154.52c.6-1.67,1.2-3.33,1.79-4.97,5.12-14.22,10.41-28.92,17.06-42.61,13.72-28.14,32.06-54.38,52.71-75.64-23.23,9.58-43.57,25.12-62.89,47.85-1.38,1.62-3.67,2.1-5.58,1.17-1.91-.93-2.95-3.03-2.52-5.12,3.81-18.69,10.99-34.96,21.78-49.31-29.45,12.81-46.55,30.36-63.18,53.46-1.16,1.61-3.22,2.31-5.12,1.74-1.9-.57-3.23-2.29-3.31-4.28-.41-10.85,4.36-25.36,13.06-40.39-35.15,15.34-56.3,40.08-67.16,78.32,6.53-1.33,13.16-1.97,19.77-1.97,32.53,0,64.68,15.59,83.58,41.74Z"/>
        </g>
        <g>
          <path class="cls-5" d="M437.11,395.41c-14.1,3.52-27.42,6.85-36.95.45-5.52-3.71-8.87-10.06-10.22-19.42,0,0,0,0,0,0,0,0,0-.06,0-.06-1.41-9.92-.72-19.64,1.94-28.72-1.48.12-2.97.21-4.47.23-.77.01-1.54.02-2.3.02-8.37,0-15.78-.73-22.36-2.04-6.12,8.71-8.97,20.1-8.46,34.02.61,16.9,8.91,32.56,21.66,40.86,15.98,10.4,35.98,8.26,46.48,6.05,24.13-5.07,41.56-18.7,51.43-34.17-10.7-3.7-23.89-.41-36.76,2.8Z"/>
          <path class="cls-5" d="M548.77,365.71c-1.4-15.95-11.54-31.25-28.56-43.09-15.51-10.8-34.74-17.23-51.48-17.23h-.18c-22.67.06-43.17,8.76-56.24,23.87-11.05,12.77-15.6,28.59-13.16,45.77v.09c.97,6.6,2.99,10.86,6.21,13.02,6.1,4.09,17.47,1.25,29.51-1.75,8.81-2.2,18.7-4.67,28.31-4.67s18.97,2.48,26.66,10.2c6.4,6.42,10.03,15.81,9.95,25.77-.05,7.08-1.89,13.87-5.3,19.84,15.26-2.63,29.05-10.03,38.86-21.06,11.84-13.31,17.18-30.86,15.43-50.75Z"/>
        </g>
        <g>
          <path class="cls-2" d="M352.88,694.51c-.26-.04-.53-.07-.79-.11-9.17-1.28-18.23-3.14-27.08-5.59-15.27-4.23-29.41-10.05-42.07-17.27-1.41,10.04,1.04,19.82,6.85,26.73,7.22,8.59,18.74,14.22,35.23,17.22,11.31,2.05,19.89.23,25.5-5.43,3.57-3.6,5.85-8.82,6.71-14.99-.99-.12-1.97-.25-2.95-.38-.47-.06-.94-.12-1.4-.18Z"/>
          <path class="cls-2" d="M477.57,675.11c-16.5,8.26-35.93,14.35-58.25,18.2-6.23,1.07-12.5,1.87-18.79,2.4.9,5.7,2.71,10.38,6.19,13.56,5.99,5.47,17.28,7.06,34.51,4.88,17.65-2.24,29.13-8.39,34.12-18.29,2.81-5.58,3.57-12.5,2.25-20.57,0-.06-.02-.12-.03-.18Z"/>
          <path class="cls-2" d="M361.83,191.74c8.94-4.28,17.86-6.23,26.48-5.94,14.37.06,28.05,7,39.89,20.42,9.39-.5,19.18-.86,29.23-1.02,13.68-9.39,29.35-12.63,42.11-8.21,4.66,1.61,9.85,4.53,14.6,9.72,6.93.52,13.84,1.19,20.68,2.01-14.66-28.63-37.86-57.27-66.96-73.1-2.16,5.69-4.23,11.42-6.26,17.07-1.64,4.54-3.33,9.24-5.03,13.8-.63,1.69-2.18,2.87-3.98,3.01-.13.01-.25.02-.38.02-1.66,0-3.2-.89-4.04-2.34l-.25-.43c-20.38-35.04-65.61-52.73-105.27-41.2-49.6,18.08-87.11,60.55-102.25,108.65,32.84-7.72,62.42-13.55,91.64-18.01,8.51-10.66,18.83-19.22,29.79-24.48Z"/>
          <path class="cls-2" d="M509.15,305.62c5.72,2.64,11.24,5.77,16.38,9.35,6.45,4.49,12.03,9.46,16.67,14.78,2.02-7.13,3.85-14.27,5.35-21.41-11.67-1.44-24.58-2.35-38.4-2.72Z"/>
          <path class="cls-2" d="M484.37,447.86s-.09,0-.14,0c-1.86,0-3.55-1.12-4.29-2.84-.75-1.77-.33-3.81,1.04-5.15,6.05-5.89,9.41-13.79,9.48-22.26.06-7.48-2.58-14.46-7.24-19.13-.39-.39-.78-.76-1.18-1.11-12.96,20.02-35.87,33.94-57.7,38.52-6.47,1.36-12.79,2.03-18.84,2.03-13.17,0-25.09-3.18-34.63-9.39-15.25-9.92-25.17-28.44-25.89-48.32-.53-14.61,2.25-26.92,8.23-36.81-12.76-4.13-21.62-10.73-27.76-18.09-31.61,7.75-55.28,16.87-66.11,25.91-2.36,1.97-5.14,4.84-5.64,7.69,7.34,17.85,13.86,36.33,13.13,56.21-.14,3.89-.32,7.63-.53,11.26.81-.18,1.63-.35,2.46-.51,20.28-3.8,37.2,2.03,48.93,16.84,5.03,6.36,8.91,14.19,11.67,23.07,4.22-.39,8.85.59,13.84,2.95,30.76,14.58,63.3,17.85,85.17,18.02,26.54.21,52.41-3.94,70.98-11.38,9.93-3.98,16.85-8.63,19.4-12.97-2.2-6.93-3.28-14.14-3.47-21.59-9.51,4.27-20.03,6.71-30.91,7.03Z"/>
          <path class="cls-2" d="M496.49,205.8c-2.86-.99-5.93-1.47-9.11-1.47-10.63,0-22.58,5.35-32.49,14.95-4.21,4.08-8.23,9.29-11.08,15.11.21.66.41,1.31.6,1.97,0,.02.01.04.02.06.25.86.49,1.72.72,2.58,10.13-11.32,23.45-18.81,37.46-20.36,11.98-1.33,23.38,1.83,32.88,8.86-4-11.33-10.43-18.72-19-21.69Z"/>
          <path class="cls-2" d="M386.6,195.09c-6.74,0-13.7,1.67-20.75,5.05-14.45,6.92-27.73,20.43-36.44,37.06-1.76,3.36-3.29,6.75-4.58,10.15,3.75-5.56,8.28-10.52,13.57-14.79,13.87-11.2,32.16-17.18,51.59-16.79,15.37.3,29.75,4.62,40.49,12.16.46.32.9.65,1.34.98-1.97-4.46-4.42-8.78-7.48-12.72-10.85-13.95-23.83-21.09-37.76-21.09Z"/>
          <path class="cls-2" d="M310.4,448.51c-9.58-12.11-23.01-16.63-39.91-13.47-40.68,7.62-49.43,52.57-57.89,96.04-4.24,21.77-8.24,42.34-16.25,57.23-8.54,15.87-20.66,23.31-36.96,22.55,1.56,7.57,6.32,17.16,14.87,25.15,7.43,6.95,20.18,14.97,38.74,13.72,40.89-2.76,76.05-30.75,96.45-76.81,20.34-45.91,20.75-99.4.95-124.41Z"/>
        </g>
        <g>
          <path class="cls-4" d="M519.27,244.45c-8.99-12.23-21.59-18.12-35.63-16.56-6.83.76-13.48,3.22-19.54,7.04-5.9,4.71-11.47,10.28-16.42,16.04.05.3.1.61.15.91.77,3,1.18,6.11,1.21,9.3,1.51,14.18,1.18,26.52-1.02,37.18,6.57-1.48,13.45-2.26,20.5-2.28h.2c8.97,0,18.57,1.66,28.01,4.7,18.67-8.15,25.85-26.21,22.53-56.32ZM506,280.01c-3.33,3.57-8.06,4.63-11.45,4.9-.66.05-1.3.08-1.92.08-2.77,0-5.23-.51-7.35-1.52-3.65-1.75-6.28-5.11-7.39-9.47-1.28-4.99-.29-10.56,2.57-14.53,4.75-6.59,14.05-10.06,23.68-8.84.96.12,1.7.9,1.78,1.86s-.53,1.85-1.45,2.12c-4.83,1.44-8.55,6.06-9.05,11.07,1.3-1.31,3.14-2.04,5.21-2.04h.04c2.8.01,5.44,1.36,6.89,3.52,2.49,3.7,1.82,9.23-1.56,12.85Z"/>
          <path class="cls-4" d="M439.52,259.8c-.03-.23-.05-.46-.08-.68-.07-.58-.14-1.16-.22-1.76-.03-.22-.06-.45-.09-.67-.1-.75-.21-1.51-.33-2.28-4-15.1-20.66-28.79-48.98-29.33-32.72-.64-66.56,19.08-68.55,64.53,2.39,32.21,25.85,49.61,66,48.97,2.83-.04,5.63-.3,8.37-.73,2.51-5.23,5.73-10.16,9.64-14.69,8.49-9.81,19.67-17.23,32.44-21.81,3.06-10.73,3.74-23.76,2.06-39.36-.08-.71-.16-1.45-.25-2.19ZM396.14,306.21c-4.28,0-8.09-.79-11.36-2.35-5.64-2.7-9.69-7.9-11.42-14.64-1.97-7.72-.45-16.33,3.97-22.47,7.35-10.2,21.74-15.57,36.66-13.68,1.44.18,2.55,1.35,2.67,2.79.12,1.44-.79,2.77-2.18,3.18-7.64,2.27-13.49,9.65-14.15,17.57,2.01-2.14,4.93-3.35,8.22-3.35.02,0,.04,0,.06,0,4.31.02,8.37,2.1,10.61,5.42,3.84,5.71,2.8,14.23-2.42,19.82-5.15,5.51-12.47,7.16-17.7,7.57-1.01.08-2,.12-2.97.12Z"/>
          <polygon class="cls-4" points="399.38 277.81 399.39 277.81 399.38 277.81 399.38 277.81"/>
        </g>
        <g>
          <path d="M609.04,777.91c-35.25-20.57-73.94-32.04-111.91-33.18-10.32-.3-20.52.17-30.55,1.4-3.02-3.04-6.61-13.97-7.25-26.56,11.64-4.03,19.81-10.56,24.33-19.53,4.14-8.22,4.96-18.11,2.49-29.58,17.86-10.46,31.76-23.82,41.57-40.03,23.39-38.65,23.92-94.33,1.6-165.52-.35-1.22-.72-2.41-1.12-3.55,0,0,0-.02,0-.02,0,0,0,0,0,0-.01-.03-.02-.07-.03-.1-2.76-7.92-3.77-16.43-3.54-25.41,5.83-3.66,11.13-8.07,15.68-13.18,13.59-15.28,19.73-35.25,17.75-57.75-.79-8.93-3.83-17.64-8.88-25.76,2.92-9.79,5.58-19.63,7.65-29.49.35.06.72.11,1.07.16,2.35.38,4.61-1.07,5.24-3.37,9.62-35.21-1.23-77.62-8-92.64-.64-1.42-1.95-2.43-3.49-2.68-1.87-.31-3.75-.6-5.64-.88-6.57-13.94-14.84-27.46-24.26-39.52-14.91-19.09-32.24-34.11-50.46-43.81,2.19-5.41,4.5-10.75,7-15.89,16.5-33.83,39.86-64.8,65.79-87.2,1.64-1.41,2.08-3.77,1.08-5.68-1-1.92-3.19-2.89-5.29-2.35-27.94,7.21-51.79,20.99-73.88,42.89,5.72-15.28,14.46-28.59,26.46-40.35,1.54-1.51,1.84-3.89.72-5.73-1.12-1.85-3.36-2.68-5.42-2.02-31.41,10.19-52.69,23.87-73.13,47.99,3.27-8.99,8.67-19.07,15.68-28.92,1.17-1.65,1.15-3.86-.06-5.48-1.21-1.62-3.32-2.27-5.23-1.62-48.15,16.45-75.28,45.85-87.7,95.12-52.98,20.17-92.54,66.84-107.25,119.05-1.13.27-2.26.55-3.4.82-1.26.31-2.34,1.13-2.97,2.27-3.6,6.5-6.07,15.76-7.27,26.43-24.35-14.84-56.78-21.43-73.73-19.16-1.42.19-2.67,1.02-3.39,2.25-.73,1.23-.84,2.73-.32,4.06,7.39,18.88,24.8,30.8,39.15,39.08,6.56,3.79,13.47,7.68,20.55,11.26-15.87,7.17-28.93,21.16-34.08,37.65-.4,1.29-.23,2.69.48,3.84s1.88,1.93,3.22,2.15c5.35.86,11.77,1.67,18.6,1.67,9.25,0,19.25-1.48,28.32-6.3,3.42-1.82,6.87-4.62,9.95-8,4.33,10.57,10.69,20.82,19.99,27.88,6.93,16.88,13.05,34.26,12.39,52.21-.19,5.1-.42,9.91-.74,14.51-36.71,14.52-45.51,59.69-53.35,99.99-9.29,47.7-16.6,76.69-48.59,71.76-1.34-.21-2.71.18-3.74,1.07-1.03.88-1.62,2.17-1.62,3.53,0,12.12,7.22,26.7,18.39,37.15,11.37,10.63,25.95,16.35,41.45,16.35,1.42,0,2.85-.05,4.28-.14,13.7-.92,26.79-4.42,38.98-10.25,6.51,6.42,13.82,12.29,21.83,17.55-3.1,13.95-.06,28.08,8.23,37.94,4.54,5.41,10.38,9.8,17.58,13.26-2.31,12.36-16.87,25.28-26.68,33.97-.4.36-.79.7-1.18,1.04-6.87-.6-13.71-.83-20.48-.63-29.24.84-56.75,9.11-79.57,23.92-1.95,1.27-2.67,3.78-1.68,5.89.99,2.11,3.39,3.15,5.61,2.45,23.06-7.28,29.66-9.14,52.97-9.89-10.81,7.36-20.15,16.73-28.18,32.96-.93,1.89-.48,4.17,1.1,5.56.87.77,1.97,1.16,3.07,1.16.9,0,1.79-.26,2.58-.78,1.79-1.19,3.53-2.35,5.22-3.49,38.85-26,54.93-36.76,126.89-28.63,2.25.25,4.36-1.15,4.99-3.33.63-2.18-.4-4.5-2.44-5.48-11.7-5.66-23.72-10.16-35.85-13.49,8.88-9.21,17.32-20.41,20.52-33.53,2.18.26,4.25.39,6.19.39,12.03,0,19.46-4.61,23.8-8.98,5.14-5.18,8.32-12.33,9.4-20.64,5.17.39,10.39.61,15.63.61.83,0,1.66,0,2.49-.01.95-.01,1.86-.07,2.74-.15,1.27-.03,2.53-.07,3.8-.12,1.11,7.97,3.69,14.76,9.27,19.85,6.08,5.55,14.93,8.26,27.34,8.26,1.25,0,2.55-.04,3.88-.09.22,2.83.55,5.66,1,8.47.81,5.08,2.37,12.17,5.28,19.05-18.91,5.26-36.88,13.38-53.4,24.21-2.04,1.34-2.7,4.02-1.52,6.15,1.18,2.13,3.81,2.99,6.02,1.96,49.85-23.1,121.03-8.12,162.05,34.09.9.93,2.12,1.41,3.34,1.41.86,0,1.72-.24,2.49-.72,1.86-1.18,2.64-3.5,1.86-5.57-7.32-19.47-23.48-36.1-45.73-47.62,25.32,1.16,47.64,4.57,92.07,20.57,2.26.82,4.78-.23,5.79-2.41,1.02-2.18.21-4.78-1.87-5.99ZM533.34,416.46c-9.81,11.03-23.6,18.42-38.86,21.06,3.4-5.97,5.24-12.75,5.3-19.84.08-9.96-3.55-19.35-9.95-25.77-7.69-7.72-17.03-10.2-26.66-10.2s-19.5,2.47-28.31,4.67c-12.04,3-23.41,5.85-29.51,1.75-3.22-2.16-5.24-6.42-6.19-13.02v-.09c-2.45-17.18,2.1-33,13.15-45.77,13.07-15.1,33.57-23.8,56.24-23.87h.18c16.73,0,35.96,6.44,51.48,17.23,17.01,11.84,27.15,27.15,28.56,43.09,1.75,19.89-3.59,37.44-15.43,50.75ZM362.75,345.86c6.58,1.3,13.99,2.04,22.36,2.04.75,0,1.53,0,2.3-.02,1.5-.02,2.99-.11,4.47-.23-2.65,9.08-3.34,18.8-1.94,28.72,0,0,0,.06,0,.06,0,0,0,0,0,0,1.35,9.36,4.69,15.71,10.22,19.42,9.53,6.4,22.85,3.07,36.95-.45,12.86-3.21,26.06-6.5,36.76-2.8-9.88,15.47-27.3,29.11-51.43,34.17-10.5,2.2-30.5,4.35-46.48-6.05-12.75-8.3-21.05-23.95-21.66-40.86-.5-13.92,2.34-25.31,8.46-34.02ZM424.35,216.18c3.06,3.94,5.51,8.26,7.48,12.72-.44-.33-.89-.66-1.34-.98-10.75-7.55-25.13-11.86-40.49-12.16-19.44-.39-37.73,5.59-51.59,16.79-5.29,4.27-9.82,9.23-13.57,14.79,1.29-3.4,2.82-6.79,4.58-10.15,8.71-16.63,21.99-30.14,36.44-37.06,7.05-3.38,14.01-5.05,20.75-5.05,13.93,0,26.9,7.14,37.76,21.09ZM449.04,261.17c-.03-3.19-.44-6.3-1.21-9.3-.05-.3-.1-.61-.15-.91,4.95-5.76,10.51-11.33,16.42-16.04,6.06-3.82,12.72-6.29,19.54-7.04,14.03-1.55,26.64,4.33,35.63,16.56,3.32,30.12-3.86,48.17-22.53,56.32-9.44-3.04-19.03-4.7-28.01-4.7h-.2c-7.06.02-13.93.8-20.5,2.28,2.19-10.66,2.53-23,1.02-37.18ZM482.61,218.63c-14.01,1.56-27.34,9.04-37.46,20.36-.23-.86-.46-1.71-.72-2.58,0-.02-.01-.04-.02-.06-.19-.66-.4-1.31-.6-1.97,2.85-5.82,6.87-11.02,11.08-15.11,9.9-9.61,21.85-14.95,32.49-14.95,3.18,0,6.25.48,9.11,1.47,8.57,2.97,15,10.36,19,21.69-9.5-7.03-20.89-10.19-32.88-8.86ZM389.82,225.07c28.32.55,44.98,14.24,48.98,29.33.12.77.22,1.53.33,2.28.03.23.06.45.09.67.08.59.15,1.18.22,1.76.03.23.06.46.08.68.09.75.17,1.48.25,2.19,1.68,15.6,1,28.63-2.06,39.36-12.77,4.57-23.95,12-32.44,21.81-3.92,4.52-7.14,9.46-9.64,14.69-2.74.43-5.53.69-8.37.73-40.15.63-63.61-16.76-66-48.97,1.99-45.45,35.84-65.17,68.55-64.53ZM542.2,329.75c-4.64-5.32-10.22-10.29-16.67-14.78-5.14-3.58-10.66-6.71-16.38-9.35,13.82.37,26.73,1.28,38.4,2.72-1.51,7.14-3.34,14.28-5.35,21.41ZM414.85,36.43c-8.7,15.03-13.47,29.54-13.06,40.39.08,1.99,1.4,3.71,3.31,4.28,1.9.57,3.96-.12,5.12-1.74,16.63-23.1,33.74-40.66,63.18-53.46-10.8,14.35-17.97,30.62-21.78,49.31-.42,2.08.61,4.19,2.52,5.12,1.91.93,4.21.45,5.58-1.17,19.32-22.74,39.66-38.28,62.89-47.85-20.65,21.27-38.99,47.51-52.71,75.64-6.64,13.69-11.94,28.39-17.06,42.61-.59,1.64-1.19,3.3-1.79,4.97-18.9-26.15-51.05-41.74-83.58-41.74-6.61,0-13.24.64-19.77,1.97,10.86-38.24,32-62.98,67.16-78.32ZM342.65,125.58c39.66-11.54,84.9,6.16,105.27,41.2l.25.43c.83,1.46,2.38,2.34,4.04,2.34.13,0,.25,0,.38-.02,1.8-.15,3.35-1.32,3.98-3.01,1.7-4.57,3.39-9.26,5.03-13.8,2.03-5.65,4.1-11.38,6.26-17.07,29.1,15.83,52.3,44.47,66.96,73.1-6.84-.82-13.75-1.49-20.68-2.01-4.74-5.18-9.94-8.1-14.6-9.72-12.77-4.42-28.44-1.18-42.11,8.21-10.05.16-19.84.52-29.23,1.02-.38-.43-.77-.84-1.15-1.26-.03-.03-.06-.06-.09-.1-11.55-12.52-24.77-19.01-38.65-19.07-8.63-.29-17.54,1.65-26.48,5.94-10.96,5.25-21.28,13.81-29.79,24.48-29.22,4.46-58.8,10.29-91.64,18.01,15.15-48.1,52.66-90.57,102.25-108.65ZM253.72,358.93c.5-2.86,3.28-5.72,5.64-7.69,10.83-9.05,34.5-18.16,66.11-25.91,6.14,7.36,14.99,13.95,27.76,18.09-5.99,9.89-8.76,22.19-8.23,36.81.72,19.88,10.64,38.4,25.89,48.32,9.54,6.21,21.46,9.39,34.63,9.39,6.05,0,12.37-.67,18.84-2.03,21.83-4.58,44.75-18.5,57.7-38.52.4.35.79.72,1.18,1.11,4.66,4.67,7.29,11.64,7.24,19.13-.06,8.47-3.43,16.38-9.48,22.26-1.38,1.34-1.79,3.38-1.04,5.15.73,1.72,2.42,2.84,4.29,2.84.05,0,.09,0,.14,0,10.88-.32,21.4-2.76,30.91-7.03.2,7.45,1.28,14.66,3.47,21.59-2.55,4.34-9.47,8.99-19.4,12.97-18.57,7.44-44.43,11.58-70.98,11.38-21.88-.17-54.41-3.44-85.17-18.02-4.99-2.37-9.61-3.34-13.84-2.95-2.76-8.88-6.64-16.71-11.67-23.07-11.73-14.82-28.65-20.64-48.93-16.84-.83.16-1.65.33-2.46.51.22-3.63.39-7.37.53-11.26.73-19.88-5.8-38.37-13.13-56.21ZM213,649.73c-18.56,1.25-31.31-6.77-38.74-13.72-8.55-7.99-13.31-17.58-14.87-25.15,16.29.76,28.42-6.68,36.96-22.55,8.01-14.89,12.01-35.46,16.25-57.23,8.46-43.47,17.21-88.42,57.89-96.04,16.9-3.16,30.33,1.37,39.91,13.47,19.8,25.01,19.39,78.5-.95,124.41-20.4,46.06-55.56,74.05-96.45,76.81ZM350.52,710.06c-5.61,5.66-14.2,7.48-25.5,5.43-16.49-3-28.01-8.63-35.23-17.22-5.81-6.92-8.26-16.7-6.85-26.73,12.66,7.22,26.8,13.05,42.07,17.27,8.85,2.45,17.91,4.31,27.08,5.59.26.04.53.08.79.11.47.06.94.12,1.4.18.98.13,1.96.26,2.95.38-.86,6.16-3.14,11.39-6.71,14.99ZM327.49,679.83c-26.41-7.31-49.16-19.59-66.26-35.68,23.55-13.91,43.23-37,56.72-67.47,15.32-34.58,19.9-72.41,13.79-101.64,2.2.09,4.66.78,7.47,2.11,53.77,25.5,124.42,22.57,163.6,6.88,6.36-2.55,13.85-6.27,19.21-11.19,19.88,66.05,19.12,117.42-2.28,152.77-18.35,30.32-52.67,50-102.01,58.52-30.1,5.19-61.31,3.71-90.24-4.3ZM406.72,709.27c-3.48-3.18-5.3-7.86-6.19-13.56,6.29-.53,12.56-1.33,18.79-2.4,22.31-3.85,41.75-9.94,58.25-18.2.01.06.02.12.03.18,1.32,8.07.56,14.99-2.25,20.57-4.99,9.9-16.47,16.05-34.12,18.29-17.23,2.19-28.52.59-34.51-4.88Z"/>
          <path d="M485.29,283.47c2.11,1.01,4.58,1.52,7.35,1.52.62,0,1.27-.03,1.92-.08,3.38-.27,8.12-1.34,11.45-4.9,3.38-3.62,4.06-9.15,1.56-12.85-1.45-2.16-4.09-3.51-6.89-3.52h-.04c-2.07,0-3.91.73-5.21,2.04.5-5,4.21-9.63,9.05-11.07.93-.27,1.53-1.16,1.45-2.12s-.82-1.74-1.78-1.86c-9.63-1.22-18.93,2.25-23.68,8.84-2.86,3.97-3.85,9.54-2.57,14.53,1.11,4.36,3.74,7.73,7.39,9.47Z"/>
          <path d="M384.79,303.86c3.27,1.56,7.08,2.35,11.36,2.35.97,0,1.96-.04,2.97-.12,5.23-.41,12.56-2.07,17.7-7.57,5.22-5.59,6.26-14.11,2.42-19.82-2.24-3.32-6.3-5.4-10.61-5.42-.02,0-.04,0-.06,0-3.29,0-6.21,1.2-8.22,3.35.66-7.92,6.5-15.3,14.15-17.57,1.39-.41,2.3-1.74,2.18-3.18-.12-1.44-1.23-2.61-2.67-2.79-14.91-1.9-29.3,3.47-36.66,13.68-4.42,6.14-5.95,14.75-3.97,22.47,1.72,6.74,5.78,11.94,11.42,14.64ZM399.38,277.81s0,0,0,0c0,0,0,0,0,0h0Z"/>
        </g>
      </g>
      <rect class="cls-1" width="750" height="830"/>
    </g>
  </g>
</svg>